# xmcd
#
# Track frame offsets: 
#        150
#        15138
#        36457
#        51028
#        69158
#        86625
#        105258
#        120028
#        138655
#        152510
#
# Disc length: 2298 seconds
#
# Revision: 0
# Processed by: cddbd v1.5.2PL0 Copyright (c) Steve Scherf et al.
# Submitted via: ExactAudioCopyFreeDBPlugin 1.0
#
DISCID=6a08f80a
DTITLE=Hayes Carll - Lovers and Leavers
DYEAR=2016
DGENRE=Americana
TTITLE0=Drive
TTITLE1=Sake of the Song
TTITLE2=Good While It Lasted
TTITLE3=You Leave Alone
TTITLE4=My Friends
TTITLE5=The Love That We Need
TTITLE6=Love Don't Let Me Down
TTITLE7=The Magic Kid
TTITLE8=Love Is So Easy
TTITLE9=Jealous Moon
EXTD=
EXTT0=
EXTT1=
EXTT2=
EXTT3=
EXTT4=
EXTT5=
EXTT6=
EXTT7=
EXTT8=
EXTT9=
PLAYORDER=
